<?xml version="1.0" standalone="no"?>
<!DOCTYPE svg PUBLIC "-//W3C//DTD SVG 20010904//EN"
 "http://www.w3.org/TR/2001/REC-SVG-20010904/DTD/svg10.dtd">
<svg version="1.0" xmlns="http://www.w3.org/2000/svg"
 width="260.000000pt" height="260.000000pt" viewBox="0 0 260.000000 260.000000"
 preserveAspectRatio="xMidYMid meet">
<metadata>
Created by potrace 1.14, written by Peter Selinger 2001-2017
</metadata>
<g transform="translate(0.000000,260.000000) scale(0.100000,-0.100000)"
fill="#000000" stroke="none">
<path d="M1037 2523 c-2 -1 -37 -5 -78 -8 -101 -7 -109 -11 -109 -46 0 -25 -3
-29 -19 -24 -10 3 -36 8 -57 10 -22 3 -54 7 -72 10 -18 3 -62 -2 -98 -11 -52
-13 -67 -22 -75 -40 -4 -13 -15 -24 -23 -24 -7 0 -15 -10 -17 -22 -7 -39 6
-224 14 -211 12 18 126 47 231 59 23 2 55 6 71 9 182 26 894 27 1031 1 10 -2
45 -7 77 -10 33 -4 70 -11 83 -16 13 -5 24 -7 24 -5 0 3 16 -2 36 -10 20 -8
39 -15 43 -15 4 0 8 54 9 120 2 118 1 120 -21 121 -12 1 -28 1 -34 0 -7 -1
-13 7 -13 17 0 23 -15 31 -88 47 -60 13 -123 11 -197 -8 -40 -9 -51 -17 -53
-34 -2 -15 -10 -23 -22 -23 -16 0 -19 7 -18 46 0 25 -4 50 -9 55 -6 6 -64 13
-131 15 l-120 5 -21 -27 c-11 -15 -21 -40 -21 -55 0 -32 5 -30 -105 -31 -86 0
-85 0 -85 26 0 39 -47 76 -102 80 -15 1 -30 1 -31 -1z"/>
<path d="M1018 2225 c-1 -1 -48 -6 -103 -9 -55 -4 -111 -9 -125 -11 -14 -2
-45 -7 -70 -10 -106 -14 -152 -29 -181 -58 -13 -12 -14 -26 -7 -69 5 -29 8
-70 8 -90 -1 -44 22 -62 90 -73 106 -17 110 -19 110 -40 0 -7 7 -16 16 -19 14
-5 15 -30 10 -227 -4 -122 -9 -245 -12 -273 -12 -104 -50 -186 -166 -360 -44
-66 -81 -127 -83 -135 -1 -8 -8 -17 -16 -19 -39 -10 -40 -11 -29 -32 6 -11 17
-20 25 -20 8 0 15 -3 15 -7 0 -5 -30 -55 -66 -113 -36 -58 -78 -124 -92 -148
-17 -27 -41 -49 -65 -59 -41 -19 -50 -52 -21 -84 15 -17 15 -19 -10 -30 -15
-7 -28 -22 -31 -33 -6 -31 -1 -139 8 -153 12 -19 114 -53 217 -73 90 -18 127
-23 265 -35 33 -4 76 -8 95 -10 42 -6 225 -14 423 -20 81 -2 152 -7 157 -10 6
-3 10 0 10 7 0 9 3 9 10 -2 8 -13 10 -13 10 -1 0 11 3 12 12 3 6 -6 18 -8 27
-3 20 9 52 8 70 -3 9 -6 12 -5 8 1 -4 7 12 11 46 11 173 0 474 28 617 57 14 3
40 8 58 11 45 9 128 50 134 66 2 7 4 46 4 86 -1 54 -5 76 -16 82 -44 27 -46
30 -29 40 9 5 15 19 13 32 -1 13 -3 26 -3 30 -1 5 -17 16 -37 25 -30 15 -54
46 -130 168 -90 143 -105 173 -85 160 5 -3 12 -1 16 5 4 6 11 8 17 4 6 -4 8 3
6 17 -1 13 -9 25 -15 25 -7 1 -17 2 -23 3 -5 0 -10 7 -10 14 0 8 -25 49 -54
93 -134 193 -190 312 -200 420 -3 32 -8 155 -11 272 -6 186 -4 213 9 218 9 3
16 14 16 24 0 21 11 25 85 36 28 5 52 9 55 9 58 15 58 16 63 68 3 29 8 72 11
96 3 24 1 52 -4 62 -15 28 -103 53 -226 64 -32 3 -75 8 -94 11 -37 6 -716 15
-722 9z m6 -103 c3 -5 -18 -9 -47 -9 l-52 -1 45 8 c25 4 46 8 47 8 1 1 4 -2 7
-6z m96 2 c0 -8 -19 -13 -24 -6 -3 5 1 9 9 9 8 0 15 -2 15 -3z m50 1 c0 -7
-30 -13 -34 -7 -3 4 4 9 15 9 10 1 19 0 19 -2z m40 1 c0 -11 -19 -15 -25 -6
-3 5 1 10 9 10 9 0 16 -2 16 -4z m83 -3 c-7 -2 -21 -2 -30 0 -10 3 -4 5 12 5
17 0 24 -2 18 -5z m157 -3 c0 -5 -7 -7 -15 -4 -8 4 -15 8 -15 10 0 2 7 4 15 4
8 0 15 -4 15 -10z m60 6 c0 -3 -4 -8 -10 -11 -5 -3 -10 -1 -10 4 0 6 5 11 10
11 6 0 10 -2 10 -4z m64 -8 c-2 -4 -14 -5 -26 -3 -32 7 -32 13 1 11 16 0 27
-4 25 -8z m50 4 c2 -4 -5 -9 -17 -9 -17 -2 -19 0 -7 7 18 12 18 12 24 2z m36
-2 c0 -5 -5 -10 -11 -10 -5 0 -7 5 -4 10 3 6 8 10 11 10 2 0 4 -4 4 -10z
m-740 -6 c0 -8 -19 -13 -24 -6 -3 5 1 9 9 9 8 0 15 -2 15 -3z m777 0 c-3 -3
-12 -4 -19 -1 -8 3 -5 6 6 6 11 1 17 -2 13 -5z m79 -6 c3 -4 -1 -5 -10 -4 -8
1 -18 5 -22 8 -3 4 1 5 10 4 8 -1 18 -5 22 -8z m29 2 c3 -5 1 -10 -4 -10 -6 0
-11 5 -11 10 0 6 2 10 4 10 3 0 8 -4 11 -10z m-1005 -10 c-20 -13 -33 -13 -25
0 3 6 14 10 23 10 15 0 15 -2 2 -10z m68 3 c-10 -2 -26 -2 -35 0 -10 3 -2 5
17 5 19 0 27 -2 18 -5z m986 -2 c4 -5 -3 -7 -14 -4 -23 6 -26 13 -6 13 8 0 17
-4 20 -9z m41 -1 c3 -5 -1 -10 -10 -10 -9 0 -13 5 -10 10 3 6 8 10 10 10 2 0
7 -4 10 -10z m-1200 -10 c-3 -5 -16 -10 -28 -10 -12 -1 -46 -9 -74 -19 -29
-10 -53 -14 -53 -9 0 4 3 8 8 9 4 0 39 9 77 19 39 10 71 19 73 19 2 1 0 -3 -3
-9z m65 6 c0 -2 -11 -6 -25 -8 -14 -3 -25 -1 -25 3 0 5 11 9 25 9 14 0 25 -2
25 -4z m1230 -18 c0 -5 -10 -6 -22 -3 -36 11 -41 22 -8 17 16 -2 30 -9 30 -14z
m65 -19 c15 -14 -7 -10 -35 7 l-25 15 25 -7 c14 -3 29 -10 35 -15z m-965 -153
c0 -2 -7 -7 -16 -10 -8 -3 -12 -2 -9 4 6 10 25 14 25 6z m80 -1 c0 -7 -30 -13
-34 -7 -3 4 4 9 15 9 10 1 19 0 19 -2z m53 -2 c-7 -2 -19 -2 -25 0 -7 3 -2 5
12 5 14 0 19 -2 13 -5z m64 1 c-3 -3 -12 -4 -19 -1 -8 3 -5 6 6 6 11 1 17 -2
13 -5z m56 -1 c-7 -2 -21 -2 -30 0 -10 3 -4 5 12 5 17 0 24 -2 18 -5z m80 0
c-7 -2 -21 -2 -30 0 -10 3 -4 5 12 5 17 0 24 -2 18 -5z m74 1 c-3 -3 -12 -4
-19 -1 -8 3 -5 6 6 6 11 1 17 -2 13 -5z m53 1 c0 -7 -30 -13 -34 -7 -3 4 4 9
15 9 10 1 19 0 19 -2z m45 -5 c-3 -5 -12 -10 -18 -10 -7 0 -6 4 3 10 19 12 23
12 15 0z m-650 -10 c-3 -5 -12 -10 -18 -10 -7 0 -6 4 3 10 19 12 23 12 15 0z
m82 4 c-3 -3 -12 -4 -19 -1 -8 3 -5 6 6 6 11 1 17 -2 13 -5z m616 -1 c-7 -2
-19 -2 -25 0 -7 3 -2 5 12 5 14 0 19 -2 13 -5z m-808 -13 c-3 -5 -12 -10 -18
-10 -7 0 -6 4 3 10 19 12 23 12 15 0z m-210 -1115 c311 -24 1062 -24 1380 0
43 3 54 2 38 -5 -49 -20 -309 -31 -768 -31 -466 0 -712 14 -740 42 -7 7 -5 8
5 5 8 -3 47 -8 85 -11z"/>
</g>
</svg>
